<?xml version="1.0" encoding="UTF-8"?>
<!DOCTYPE svg PUBLIC "-//W3C//DTD SVG 1.1//EN" "http://www.w3.org/Graphics/SVG/1.1/DTD/svg11.dtd">
<svg xmlns="http://www.w3.org/2000/svg" version="1.1" width="200px" height="200px" style="shape-rendering:geometricPrecision; text-rendering:geometricPrecision; image-rendering:optimizeQuality; fill-rule:evenodd; clip-rule:evenodd" xmlns:xlink="http://www.w3.org/1999/xlink">
<g><path style="opacity:1" fill="#183747" d="M 84.5,-0.5 C 94.5,-0.5 104.5,-0.5 114.5,-0.5C 161.89,8.89017 190.224,37.2235 199.5,84.5C 199.5,94.5 199.5,104.5 199.5,114.5C 190.224,161.777 161.89,190.11 114.5,199.5C 104.5,199.5 94.5,199.5 84.5,199.5C 37.1098,190.11 8.77647,161.777 -0.5,114.5C -0.5,104.5 -0.5,94.5 -0.5,84.5C 8.77647,37.2235 37.1098,8.89017 84.5,-0.5 Z"/></g>
<g><path style="opacity:1" fill="#23d46a" d="M 104.5,8.5 C 104.835,13.1772 105.335,17.8439 106,22.5C 110.333,33.8333 114.667,45.1667 119,56.5C 122.609,67.0551 122.276,77.3884 118,87.5C 113.739,92.2653 108.572,95.5987 102.5,97.5C 101.833,97.5 101.5,97.1667 101.5,96.5C 109.668,90.149 112.835,81.8157 111,71.5C 109.211,65.7159 106.545,60.3826 103,55.5C 94.0419,44.2064 84.7086,33.2064 75,22.5C 73.4205,19.0061 71.5872,15.6728 69.5,12.5C 73.0086,10.8855 76.6753,9.88549 80.5,9.5C 88.4827,8.83448 96.4827,8.50115 104.5,8.5 Z"/></g>
<g><path style="opacity:1" fill="#24d46a" d="M 102.5,100.5 C 104.833,99.8333 107.167,99.1667 109.5,98.5C 118.045,97.4831 124.212,93.1498 128,85.5C 130.43,78.6843 132.097,71.6843 133,64.5C 133.917,52.4919 134.917,40.4919 136,28.5C 136.545,24.1982 137.878,20.1982 140,16.5C 150.195,22.1777 159.362,29.1777 167.5,37.5C 163.52,41.4673 160.02,45.8006 157,50.5C 152.55,62.0683 147.55,73.4017 142,84.5C 137.78,92.7197 131.614,98.8863 123.5,103C 116.21,104.148 109.21,103.315 102.5,100.5 Z"/></g>
<g><path style="opacity:1" fill="#24d46a" d="M 39.5,31.5 C 42.6419,34.4686 45.9753,37.302 49.5,40C 62.7541,45.4195 75.7541,51.4195 88.5,58C 95.4124,61.9109 100.579,67.4109 104,74.5C 105.149,81.785 104.315,88.785 101.5,95.5C 100.833,93.8333 100.167,92.1667 99.5,90.5C 98.653,79.9648 93.3197,72.7982 83.5,69C 79.5352,67.8735 75.5352,66.8735 71.5,66C 57.1913,64.4121 42.858,63.0788 28.5,62C 24.3634,61.0656 20.3634,59.7322 16.5,58C 19.791,53.2522 22.9577,48.4188 26,43.5C 27.3712,41.9586 28.8712,40.6253 30.5,39.5C 33.5,36.8333 36.5,34.1667 39.5,31.5 Z"/></g>
<g><path style="opacity:1" fill="#23d46a" d="M 190.5,86.5 C 190.5,92.1667 190.5,97.8333 190.5,103.5C 184.03,103.28 177.697,104.114 171.5,106C 156.274,113.638 140.274,118.805 123.5,121.5C 111.517,119.854 103.851,113.187 100.5,101.5C 100.5,100.833 100.833,100.5 101.5,100.5C 109.822,110.792 120.155,113.292 132.5,108C 147.361,98.144 161.361,87.144 174.5,75C 178.252,72.7067 182.086,70.5401 186,68.5C 188.673,74.2074 190.173,80.2074 190.5,86.5 Z"/></g>
<g><path style="opacity:1" fill="#23d46a" d="M 98.5,95.5 C 98.0623,96.5063 97.3957,96.5063 96.5,95.5C 89.8058,88.2122 81.4725,85.3789 71.5,87C 55.5607,95.4737 41.2273,106.14 28.5,119C 23.6296,122.936 18.2963,126.102 12.5,128.5C 10.9922,124.628 9.99219,120.628 9.5,116.5C 9.25015,111.499 8.91682,106.499 8.5,101.5C 8.62052,98.5589 9.28719,95.8922 10.5,93.5C 14.8766,93.4225 19.2099,92.9225 23.5,92C 37.2942,86.4021 51.2942,81.4021 65.5,77C 82.1656,73.3277 93.1656,79.4944 98.5,95.5 Z"/></g>
<g><path style="opacity:1" fill="#24d46a" d="M 96.5,96.5 C 96.9175,97.2216 97.5842,97.7216 98.5,98C 98.2716,98.3988 97.9382,98.5654 97.5,98.5C 85.7261,97.1376 76.8928,101.471 71,111.5C 68.829,117.683 67.1624,124.016 66,130.5C 64.67,143.14 63.67,155.807 63,168.5C 62.3164,173.553 60.6497,178.22 58,182.5C 47.6872,176.86 38.5205,169.694 30.5,161C 34.7139,156.454 38.5473,151.621 42,146.5C 46.8999,133.794 52.5666,121.461 59,109.5C 67.4903,93.674 79.9903,89.3406 96.5,96.5 Z"/></g>
<g><path style="opacity:1" fill="#23d46a" d="M 97.5,99.5 C 97.1667,100.167 96.8333,100.833 96.5,101.5C 88.0311,108.751 85.5311,117.751 89,128.5C 91.577,134.66 94.9104,140.327 99,145.5C 107,154.833 115,164.167 123,173.5C 125.988,177.808 128.155,182.475 129.5,187.5C 123.426,188.081 117.426,189.081 111.5,190.5C 105.833,190.5 100.167,190.5 94.5,190.5C 94.2575,184.816 93.7575,179.149 93,173.5C 88.3896,162.612 84.0562,151.612 80,140.5C 76.3906,129.945 76.724,119.612 81,109.5C 85.3791,104.282 90.8791,100.948 97.5,99.5 Z"/></g>
<g><path style="opacity:1" fill="#24d46a" d="M 99.5,101.5 C 98.4362,113.882 103.436,122.715 114.5,128C 120.074,129.715 125.74,131.048 131.5,132C 143.5,133 155.5,134 167.5,135C 172.813,135.56 177.813,137.06 182.5,139.5C 177.007,149.989 170.007,159.322 161.5,167.5C 157.981,164.146 154.314,160.98 150.5,158C 138.167,152.333 125.833,146.667 113.5,141C 95.8192,132.808 90.4859,119.641 97.5,101.5C 98.3957,100.494 99.0623,100.494 99.5,101.5 Z"/></g>
</svg>
